<?xml version="1.0" encoding="UTF-8"?>
<svg version="1.1" xmlns="http://www.w3.org/2000/svg" class="allPaths" id='Eighth Floor' viewBox="276.23394775390625 123.08380126953122 596.75 127.00000000000003">
    <polygon points="872.7339477539062,181.58380126953122 802.7339477539062,145.08380126953125 793.2339477539062,140.33380126953122 784.7339477539062,136.08380126953122 773.4839477539062,132.33380126953122 760.9839477539061,129.33380126953122 748.7339477539062,126.83380126953122 736.7339477539062,124.58380126953122 724.7339477539062,123.33380126953121 714.2339477539061,123.08380126953122 701.7339477539062,123.08380126953122 683.2339477539062,123.58380126953124 643.9839477539062,126.83380126953122 616.7339477539062,131.83380126953122 502.98394775390625,147.83380126953122 452.98394775390625,155.83380126953125 403.98394775390625,163.83380126953125 352.48394775390625,173.33380126953122 328.73394775390625,178.08380126953125 303.73394775390625,183.33380126953125 289.23394775390625,188.08380126953125 283.98394775390625,190.58380126953125 278.73394775390625,193.33380126953125 276.73394775390625,197.33380126953125 276.23394775390625,200.83380126953125 278.98394775390625,203.0523223876953 287.78090262747054,208.3004614045974 297.141564576911,212.79178280329486 303.770479456703,215.53421392759364 298.7345840945933,217.53430823476305 292.2364202383765,220.06806495254375 286.0520287007139,222.07208458018292 280.71753359058476,224.30603585552262 276.9789735946009,227.05228584696857 276.23394775390625,250.08380126953125 278.73394775390625,246.08380126953116 284.98394775390625,243.83380126953125 293.73394775390625,240.33380126953125 314.98394775390625,235.33380126953125 338.98394775390625,230.58380126953125 372.73394775390625,224.83380126953125 419.23394775390625,217.83380126953125 490.98394775390625,208.08380126953125 616.4839477539061,192.33380126953125 645.9839477539062,188.83380126953125 660.4839477539062,187.33380126953125 673.7339477539061,186.83380126953122 689.9839477539062,186.33380126953125 706.9839477539062,186.33380126953125 722.2339477539062,186.33380126953125 737.4839477539062,187.33380126953125 751.9839477539062,188.83380126953125 765.2339477539062,191.08380126953125 777.2339477539064,194.33380126953122 787.7339477539062,198.83380126953125 872.9839477539062,238.33380126953125 "/>
</svg>