<?xml version="1.0" encoding="UTF-8"?>
<svg version="1.1" xmlns="http://www.w3.org/2000/svg" class="allPaths" id='Fifth Floor' viewBox="276 306.62499999999994 596.75 101.75000000000003">
    <polygon points="872.75,346.875 787.25,316.37499999999994 774.5,312.62499999999994 754.0000000000001,309.37499999999994 734.25,307.87499999999994 714.25,306.62499999999994 701,306.87499999999994 682.75,306.62499999999994 663,307.62499999999994 644.75,309.12499999999994 357.5,338.87499999999994 315.75,345.12499999999994 303.5,346.875 289.5,349.37499999999994 282.5,351.62499999999994 276.25,354.37499999999994 276.25,358.875 278.2303547447772,360.26476053411955 286.225375425675,363.6398345154357 294.6501646021763,366.2656568638031 299.6494990465934,367.63348897590413 299.0686094863574,379.63019160353707 294.006807343754,380.7588580852857 288.1446857732357,382.0149385976616 283.5485611164786,383.27195534697387 279.36087860040766,384.8873340340777 276.52070767654413,386.51320399273686 276,408.375 283.75,404.87499999999994 294.5,402.375 307.5,400.375 326.5,398.12499999999994 357.75,395.125 398.49999999999994,391.125 434.25,387.87499999999994 645.5,370.62499999999994 661.75,369.62499999999994 686.5,368.87499999999994 700.4999999999999,368.87499999999994 716,368.625 730,369.12499999999994 744,369.375 755.25,370.37499999999994 768.4999999999999,372.375 781,374.37499999999994 787.5,376.125 872.75,401.875 "/>
</svg>