<?xml version="1.0" encoding="UTF-8"?>
<svg version="1.1" xmlns="http://www.w3.org/2000/svg" class="allPaths" id='First Floor' viewBox="277.86070605764235 546.4464721679689 810.0063593720454 73.49999999999989" >
    <polygon points="1087.8670654296877,618.6964721679688 1087.6170654296875,561.9464721679688 1010.6170654296876,549.6964721679689 999.8670654296878,548.1964721679689 988.3670654296877,546.9464721679689 960.3670654296878,546.6964721679689 934.1170654296875,546.4464721679689 895.1170654296876,546.6964721679689 761.3670654296875,549.9464721679689 644.3670654296876,552.6964721679689 498.61705017089844,557.4464721679688 362.8670501708985,562.6964721679688 303.11706542968756,564.9464721679688 288.86706542968756,566.1964721679689 277.8670654296875,567.4464721679689 278.1170654296875,571.4464721679689 282.2314700334818,571.7647191825512 287.7564228875926,572.1398038103545 293.1792435074632,572.6400079645598 298.0051890421496,572.8914024426665 297.5293757399788,592.3902370080212 290.31721819948996,592.7686325945535 284.4149313347826,593.0152874470798 279.5849831164515,593.514616725426 277.86070605764235,594.8896331420693 277.8670654296875,619.9464721679688 287.4920654296875,619.3214721679688 299.9920654296875,618.8214721679688 315.11706542968756,618.5714721679688 340.4920654296875,617.6964721679688 361.3670654296876,617.6964721679686 380.36706542968756,617.3214721679688 396.8670654296876,617.4464721679686 496.6170654296876,615.9464721679686 644.8670501708986,613.6964721679688 762.6170654296876,612.6964721679688 814.3670654296876,611.9464721679688 864.6170654296877,611.9464721679688 895.6170654296876,611.6964721679688 925.8670654296877,611.6964721679688 953.6170654296877,611.6964721679688 971.8670654296875,611.6964721679688 990.6170654296878,611.9464721679688 1008.8670654296876,612.4464721679688 "/>
</svg>