<?xml version="1.0" encoding="UTF-8"?>
<svg version="1.1" xmlns="http://www.w3.org/2000/svg" class="allPaths" id='Fourth Floor' viewBox="276.75 367.875 595.75 93">
    <polygon points="872.5,401.625 787.2500000000001,375.625 776,373.125 760.25,370.875 746.25,369.125 724.7499999999999,368.375 704,368.375 688.5,367.875 668.5,368.875 645,369.625 644.5,369.875 387.5,391.625 333.75,397.375 316.1875,399 299.75,401.125 289.25,403.375 282.5,405.5625 276.9375,408.125 276.8125,412.3125 279.9324135245391,413.76469143315217 284.9764371978654,415.2646581747891 291.61154522292617,416.8890675263839 297.3325436853301,418.38929733994365 299.73414194814717,419.1438597066006 299.15597144188166,433.39337858294203 293.80109207307225,434.38809007657443 287.7559340166806,435.7725271944662 282.40394030620536,436.8912730360238 277.0194188905229,438.76836785461154 276.75,460.875 281.25,458.87499999999994 293.5,457.125 307.25,454.875 335.5,452.875 371.5,449.37500000000006 645,430.125 645.25,418.125 872.5,403.375 "/>
</svg>