<?xml version="1.0" encoding="UTF-8"?>
<svg version="1.1" xmlns="http://www.w3.org/2000/svg" class="allPaths" id='Second Floor' viewBox="276.8836669921875 481.0213623046875 811.125 85.99999999999993">
<polygon points="1087.8836669921875,504.39636230468744 1010.5086669921875,486.1463623046875 999.0086669921875,483.8963623046875 989.3836669921874,482.5213623046875 972.5086669921874,481.5213623046875 952.8836669921875,481.0213623046875 940.3836669921874,481.1463623046875 919.1336669921874,481.1463623046875 864.7586669921875,482.6463623046875 645.1336669921875,492.39636230468756 487.0086669921875,499.27136230468744 361.8836669921875,506.02136230468744 334.1336669921875,507.6463623046875 311.1336669921875,509.27136230468744 296.2586669921875,510.89636230468744 286.0086669921875,512.0213623046875 280.2586669921875,512.8963623046875 277.1336669921875,513.8963623046875 276.8836669921875,517.7713623046875 278.7586669921875,518.7647094726562 284.10324638400095,519.5147512498305 289.5933804928549,520.3898560184633 295.05928816892276,521.3891110482891 299.4011563437989,522.1392347961772 298.578495283976,542.3886993545466 294.5406794437894,542.766258857035 290.32349808038464,543.1402487542347 286.0309678355032,543.5196021581688 281.5725565762221,544.141634446459 277.1312322754307,545.5149942964633 276.8836669921875,567.0213623046874 300.5086669921875,565.1463623046874 310.5086669921875,564.6463623046874 325.3836669921875,564.1463623046875 359.5086669921875,562.5213623046874 386.8836669921875,561.6463623046874 417.6336669921875,560.2713623046874 448.2586669921875,559.1463623046874 473.38366699218756,558.2713623046875 498.2586669921875,557.3963623046875 525.8836669921875,556.5213623046874 555.2586669921875,555.5213623046875 586.3836669921875,554.7713623046875 645.3836669921875,552.7713623046874 763.2586669921875,549.7713623046874 813.5086669921874,548.1463623046875 834.1336669921876,547.6463623046875 856.2586669921874,547.1463623046874 866.8836669921872,547.1463623046874 888.6336669921874,546.7713623046874 911.0086669921875,546.7713623046874 925.3836669921874,546.6463623046875 937.5086669921874,546.6463623046875 950.1336669921875,546.6463623046875 962.5086669921875,546.6463623046875 975.3836669921875,546.7713623046874 987.6336669921875,547.2713623046875 999.6336669921873,547.8963623046874 1012.3836669921874,549.6463623046875 1088.0086669921875,562.1463623046874 "/>
</svg>