<?xml version="1.0" encoding="UTF-8"?>
<svg version="1.1" xmlns="http://www.w3.org/2000/svg" class="allPaths" id='Seventh Floor'  viewBox="276.73394775390625 185.83380126953128 596.25 116.74999999999997" >
    <polygon points="872.9839477539062,238.33380126953128 787.2339477539062,198.58380126953128 775.2339477539062,194.33380126953128 762.4839477539061,190.58380126953128 749.4839477539062,188.83380126953128 735.7339477539062,186.83380126953128 721.9839477539062,186.33380126953128 706.2339477539062,185.83380126953128 690.4839477539061,186.08380126953128 672.7339477539062,187.08380126953128 657.7339477539062,187.58380126953128 646.9839477539062,188.58380126953128 625.4839477539062,190.83380126953128 466.23394775390625,210.83380126953128 356.98394775390625,228.08380126953125 322.73394775390625,234.58380126953125 310.48394775390625,236.33380126953125 297.23394775390625,239.83380126953128 287.48394775390625,242.83380126953128 280.73394775390625,245.33380126953125 276.73394775390625,249.33380126953125 276.73394775390625,253.33380126953125 279.48394775390625,256.05232238769526 284.5555651751459,258.5507859938529 290.17962658684655,261.0468468932844 299.6724070397873,264.7922545615309 299.61566255995984,271.04957751202295 294.7693511111516,272.78940646095646 288.84913148235324,275.0375970040536 283.1217418297226,277.03357333464015 278.24199255147937,279.0524027185861 276.76768960963693,281.05240611976956 276.73394775390625,302.58380126953125 281.23394775390625,298.83380126953125 289.48394775390625,296.33380126953125 301.73394775390625,292.83380126953125 317.48394775390625,290.08380126953125 338.23394775390625,286.08380126953125 354.73394775390625,284.33380126953125 384.98394775390625,279.83380126953125 445.9839477539063,272.08380126953125 645.2339477539062,248.83380126953128 657.9839477539064,247.83380126953125 670.2339477539062,246.83380126953122 684.3589477539062,246.20880126953128 698.9839477539061,246.0838012695313 711.9839477539062,246.33380126953125 724.2339477539062,246.83380126953122 735.7339477539062,247.33380126953128 747.4839477539062,248.3338012695313 760.9839477539064,250.33380126953125 771.9839477539062,252.4588012695313 781.4839477539062,255.0838012695313 786.9839477539062,257.08380126953125 872.7339477539062,291.33380126953125 "/>
</svg>