<?xml version="1.0" encoding="UTF-8"?>
<svg version="1.1" xmlns="http://www.w3.org/2000/svg" class="allPaths" id='Ninth Floor' viewBox="276.23394775390625 49.58380126953125 596.5 145.99999999999997">
    <polygon points="872.7339477539062,117.33380126953124 817.2339477539062,83.83380126953125 785.7339477539062,64.58380126953124 764.7339477539062,56.83380126953125 738.9839477539062,52.33380126953125 708.7339477539062,49.58380126953125 683.4839477539062,50.08380126953125 642.7339477539062,53.83380126953125 581.4839477539062,64.08380126953125 426.73394775390625,91.33380126953124 364.98394775390625,103.58380126953124 335.98394775390625,109.58380126953122 310.23394775390625,116.33380126953122 293.23394775390625,121.33380126953122 280.23394775390625,128.33380126953122 276.98394775390625,133.0838012695312 276.8103291520449,147.55201809130938 283.47932553746705,154.05231930613104 301.17102605194907,162.80166828539296 293.2804601245222,165.00888583894732 285.78924989909814,168.02078006528367 279.7881635538192,171.04307114811547 276.49119569115953,174.29588086311682 276.23394775390625,195.58380126953122 282.73394775390625,190.58380126953122 291.48394775390625,187.58380126953122 302.73394775390625,183.83380126953122 338.73394775390625,175.08380126953122 395.73394775390625,164.58380126953125 441.73394775390625,157.33380126953125 512.9839477539062,145.5838012695312 575.4839477539062,136.83380126953125 640.4839477539062,127.08380126953124 645.4839477539062,127.08380126953124 664.9839477539062,125.33380126953124 680.2339477539062,124.33380126953124 693.4839477539062,123.58380126953122 708.4839477539062,123.33380126953124 721.9839477539062,123.58380126953122 734.7339477539064,125.08380126953124 750.7339477539062,127.33380126953124 761.9839477539062,129.33380126953125 773.4839477539062,131.83380126953125 780.7339477539062,134.33380126953125 786.9839477539062,136.83380126953125 872.7339477539062,182.08380126953122 "/>
</svg>