<?xml version="1.0" encoding="UTF-8"?>
<svg version="1.1" xmlns="http://www.w3.org/2000/svg" class="allPaths" id='Sixth Floor' viewBox="276.0459442138672 245.5206298828125 597 109.062515258789">
<polygon points="872.795959472656,291.2706298828125 787.2959594726562,257.1456298828125 768.6709594726561,251.64562988281247 752.0459594726562,248.8956298828125 731.5459594726562,247.0206298828125 709.0459594726562,245.5206298828125 694.1709594726565,245.8956298828125 672.5459594726561,246.6456298828125 644.2959594726562,248.77062988281253 581.7959289550781,256.2706298828125 509.67092895507807,263.8956298828125 443.2959289550781,272.02062988281244 376.5459442138672,280.5831451416015 336.7959442138672,286.83314514160156 315.2959442138672,290.58314514160156 299.0459442138672,293.58314514160156 288.2959442138672,295.83314514160156 278.2959442138672,299.3331451416015 276.0459442138672,302.58314514160156 276.5459442138672,306.33314514160156 278.7353400753589,308.3026527846627 285.85147762381274,312.05108501300015 293.74245544267734,314.3042887895032 300.5988169269928,316.8039857822857 300.48441924537315,324.5523244991981 293.0352830095099,326.5469983164926 286.3886508693652,328.3203055703925 280.93609999278584,330.3081415843175 276.31520195497757,333.0594196619054 276.0459442138672,354.5831451416015 279.5459442138672,352.33314514160156 288.5459442138672,349.83314514160156 301.5459442138672,347.0831451416015 316.0459442138672,344.58314514160156 336.2959442138672,342.0831451416015 371.7959442138672,337.5831451416015 426.0459442138672,331.83314514160156 526.0459442138672,321.08314514160156 645.5459442138672,309.33314514160156 656.5459442138672,308.83314514160156 670.5459442138672,308.3331451416015 685.5459442138672,307.5831451416015 700.7959442138673,307.5831451416015 716.7959442138672,307.5831451416015 732.545944213867,307.83314514160156 747.2959442138671,308.83314514160156 759.5459442138672,310.3331451416015 770.7959442138672,312.0831451416015 779.2959442138672,313.5831451416015 787.2959442138672,316.33314514160156 873.0459442138672,347.0831451416015 "/>
</svg>