<?xml version="1.0" encoding="UTF-8"?>
<svg version="1.1" xmlns="http://www.w3.org/2000/svg" class="allPaths" id='Third Floor' viewBox="276.6165008544922 401.57672119140625 813.2500152587891 112.50000000000006">
    <polygon points="1088.1165161132812,504.57672119140625 1087.6165161132812,438.32672119140625 1089.8665161132812,437.57672119140625 1089.1165161132812,434.3267211914063 1053.3665161132812,421.82672119140625 1023.1165161132811,412.32672119140625 1009.3665161132812,407.82672119140625 996.8665161132812,405.32672119140625 981.1165161132811,403.57672119140625 960.1165161132811,401.82672119140625 948.3665161132812,401.57672119140625 932.8665161132814,401.57672119140625 909.6165161132812,401.82672119140625 897.6165161132814,402.07672119140625 882.6165161132811,402.32672119140625 871.8665161132812,403.32672119140625 644.8665161132812,418.32672119140625 644.8665161132812,430.82672119140625 372.6165008544922,449.07672119140625 347.1165008544922,451.0767211914063 322.1165008544922,453.3267211914063 308.6165008544922,454.9517211914063 295.4915008544922,456.70172119140625 281.61650085449224,458.9517211914063 276.6165008544922,461.07672119140625 276.6165008544922,464.5767211914063 278.1165008544922,466.01470947265625 282.2416577722297,466.8898492611256 288.30038031076305,468.01509222181033 294.68334809965893,469.0149558121556 299.72782587381926,469.7673581911608 299.1445149880613,488.2623330907827 294.26917949786554,488.766947037355 289.4914169395245,489.3911618525211 284.36112054028195,490.26699026473574 280.18014092977415,491.13844927890455 276.9165926151588,492.5144389140844 276.6165008544922,514.0767211914062 284.3665008544922,512.3267211914064 294.1165008544922,511.0767211914063 310.4915008544922,509.5767211914063 333.49150085449213,507.82672119140625 365.9915008544922,505.95172119140636 423.61650085449224,502.57672119140625 644.8665008544922,492.07672119140625 762.1164855957031,487.32672119140625 813.6164855957031,485.32672119140625 839.991485595703,484.0767211914063 853.6164855957031,483.4517211914063 866.4915161132812,482.70172119140625 885.2415161132811,482.3267211914063 903.9915161132812,481.70172119140625 921.9915161132809,481.20172119140625 936.9915161132809,481.32672119140625 953.2415161132811,481.0767211914063 969.8665161132812,481.5767211914063 986.2415161132811,482.3267211914063 998.7415161132812,483.7017211914063 1008.8665161132814,485.8267211914063 "/>
</svg>